# xmcd
#
# Track frame offsets:
#	150
#	10147
#	23023
#	37623
#	54554
#	67142
#	80358
#	92798
#	104138
#	118107
#	131209
#
# Disc length: 2084 seconds
# Revision: 0
# Processed by: cddbd v1.5.2PL0 Copyright (c) Steve Scherf et al.
# Submitted via: dBpowerAMP V12.0
#
DISCID=9008220b
DTITLE=The Foghorn Stringband - Boombox Squaredance
DYEAR=2007
DGENRE=Folk
TTITLE0=Biddy
TTITLE1=Mary Wants a Lover
TTITLE2=Trouble Among the Yearlings
TTITLE3=Muddy Creek
TTITLE4=Hell and Scissors
TTITLE5=Jeff City
TTITLE6=Icy Mountain
TTITLE7=Sleepy Lou
TTITLE8=Jaybird Died With the Whooping Cough
TTITLE9=Knock Around the Kitchen Until the Cook Comes Home
TTITLE10=Silver Lake Waltz
EXTD=
EXTT0=
EXTT1=
EXTT2=
EXTT3=
EXTT4=
EXTT5=
EXTT6=
EXTT7=
EXTT8=
EXTT9=
EXTT10=
PLAYORDER=
